<svg xmlns="http://www.w3.org/2000/svg" viewBox="0 0 315 72" width="315" height="72">
  <g transform="translate(8,13)">
    <rect x="0" y="0" width="20.9" height="20.9" rx="3.3" fill="#E85D2A"></rect>
    <rect x="26.6" y="1.1" width="18.8" height="18.8" rx="2.6" fill="none" stroke="rgba(244,240,235,0.32)" stroke-width="2.2"></rect>
    <rect x="1.1" y="26.6" width="18.8" height="18.8" rx="2.6" fill="none" stroke="rgba(244,240,235,0.32)" stroke-width="2.2"></rect>
    <rect x="26.6" y="26.6" width="18.8" height="18.8" rx="2.6" fill="none" stroke="rgba(244,240,235,0.32)" stroke-width="2.2"></rect>
  </g>
  <path d="M87.944 50.588L87.944 50.588Q82.484 50.588 79.292 47.543Q76.100 44.498 76.100 38.828L76.100 38.828L76.100 31.772Q76.100 26.102 79.292 23.057Q82.484 20.012 87.944 20.012L87.944 20.012Q93.362 20.012 96.323 22.973Q99.284 25.934 99.284 31.100L99.284 31.100L99.284 31.352L93.824 31.352L93.824 30.932Q93.824 28.328 92.375 26.648Q90.926 24.968 87.944 24.968L87.944 24.968Q85.004 24.968 83.324 26.774Q81.644 28.580 81.644 31.688L81.644 31.688L81.644 38.912Q81.644 41.978 83.324 43.805Q85.004 45.632 87.944 45.632L87.944 45.632Q90.926 45.632 92.375 43.931Q93.824 42.230 93.824 39.668L93.824 39.668L93.824 38.912L99.284 38.912L99.284 39.500Q99.284 44.666 96.323 47.627Q93.362 50.588 87.944 50.588Z M108.440 50L103.148 50L103.148 20.600L108.440 20.600L108.440 31.730L109.196 31.730Q109.532 31.058 110.246 30.386Q110.960 29.714 112.157 29.273Q113.354 28.832 115.202 28.832L115.202 28.832Q117.638 28.832 119.465 29.945Q121.292 31.058 122.300 33.011Q123.308 34.964 123.308 37.568L123.308 37.568L123.308 50L118.016 50L118.016 37.988Q118.016 35.636 116.861 34.460Q115.706 33.284 113.564 33.284L113.564 33.284Q111.128 33.284 109.784 34.901Q108.440 36.518 108.440 39.416L108.440 39.416L108.440 50Z M138.092 50.588L138.092 50.588Q134.984 50.588 132.506 49.328Q130.028 48.068 128.600 45.674Q127.172 43.280 127.172 39.920L127.172 39.920L127.172 39.248Q127.172 35.888 128.600 33.494Q130.028 31.100 132.506 29.840Q134.984 28.580 138.092 28.580L138.092 28.580Q141.200 28.580 143.678 29.840Q146.156 31.100 147.584 33.494Q149.012 35.888 149.012 39.248L149.012 39.248L149.012 39.920Q149.012 43.280 147.584 45.674Q146.156 48.068 143.678 49.328Q141.200 50.588 138.092 50.588ZM138.092 45.884L138.092 45.884Q140.528 45.884 142.124 44.309Q143.720 42.734 143.720 39.794L143.720 39.794L143.720 39.374Q143.720 36.434 142.145 34.859Q140.570 33.284 138.092 33.284L138.092 33.284Q135.656 33.284 134.060 34.859Q132.464 36.434 132.464 39.374L132.464 39.374L132.464 39.794Q132.464 42.734 134.060 44.309Q135.656 45.884 138.092 45.884Z M158.336 50L153.044 50L153.044 29.168L158.252 29.168L158.252 31.520L159.008 31.520Q159.470 30.260 160.541 29.672Q161.612 29.084 163.040 29.084L163.040 29.084L165.560 29.084L165.560 33.788L162.956 33.788Q160.940 33.788 159.638 34.859Q158.336 35.930 158.336 38.156L158.336 38.156L158.336 50Z M177.236 50.588L177.236 50.588Q174.758 50.588 172.595 49.349Q170.432 48.110 169.130 45.716Q167.828 43.322 167.828 39.920L167.828 39.920L167.828 39.248Q167.828 35.846 169.130 33.452Q170.432 31.058 172.574 29.819Q174.716 28.580 177.236 28.580L177.236 28.580Q179.126 28.580 180.407 29.021Q181.688 29.462 182.486 30.134Q183.284 30.806 183.704 31.562L183.704 31.562L184.460 31.562L184.460 20.600L189.752 20.600L189.752 50L184.544 50L184.544 47.480L183.788 47.480Q183.074 48.656 181.583 49.622Q180.092 50.588 177.236 50.588ZM178.832 45.968L178.832 45.968Q181.268 45.968 182.906 44.393Q184.544 42.818 184.544 39.794L184.544 39.794L184.544 39.374Q184.544 36.350 182.927 34.775Q181.310 33.200 178.832 33.200L178.832 33.200Q176.396 33.200 174.758 34.775Q173.120 36.350 173.120 39.374L173.120 39.374L173.120 39.794Q173.120 42.818 174.758 44.393Q176.396 45.968 178.832 45.968Z" fill="#F4F0EB"></path>
  <path d="M204.830 50.588L204.830 50.588Q201.428 50.588 198.824 49.370Q196.220 48.152 194.750 45.884Q193.280 43.616 193.280 40.424L193.280 40.424L193.280 39.248L198.740 39.248L198.740 40.424Q198.740 43.070 200.378 44.393Q202.016 45.716 204.830 45.716L204.830 45.716Q207.686 45.716 209.093 44.582Q210.500 43.448 210.500 41.684L210.500 41.684Q210.500 40.466 209.807 39.710Q209.114 38.954 207.791 38.471Q206.468 37.988 204.578 37.568L204.578 37.568L203.612 37.358Q200.588 36.686 198.425 35.657Q196.262 34.628 195.107 32.948Q193.952 31.268 193.952 28.580L193.952 28.580Q193.952 25.892 195.233 23.981Q196.514 22.070 198.845 21.041Q201.176 20.012 204.326 20.012L204.326 20.012Q207.476 20.012 209.933 21.083Q212.390 22.154 213.797 24.275Q215.204 26.396 215.204 29.588L215.204 29.588L215.204 30.848L209.744 30.848L209.744 29.588Q209.744 27.908 209.093 26.879Q208.442 25.850 207.224 25.367Q206.006 24.884 204.326 24.884L204.326 24.884Q201.806 24.884 200.609 25.829Q199.412 26.774 199.412 28.412L199.412 28.412Q199.412 29.504 199.979 30.260Q200.546 31.016 201.680 31.520Q202.814 32.024 204.578 32.402L204.578 32.402L205.544 32.612Q208.694 33.284 211.025 34.334Q213.356 35.384 214.658 37.106Q215.960 38.828 215.960 41.516L215.960 41.516Q215.960 44.204 214.595 46.241Q213.230 48.278 210.731 49.433Q208.232 50.588 204.830 50.588Z M224.696 50L219.404 50L219.404 20.600L224.696 20.600L224.696 31.730L225.452 31.730Q225.788 31.058 226.502 30.386Q227.216 29.714 228.413 29.273Q229.610 28.832 231.458 28.832L231.458 28.832Q233.894 28.832 235.721 29.945Q237.548 31.058 238.556 33.011Q239.564 34.964 239.564 37.568L239.564 37.568L239.564 50L234.272 50L234.272 37.988Q234.272 35.636 233.117 34.460Q231.962 33.284 229.820 33.284L229.820 33.284Q227.384 33.284 226.040 34.901Q224.696 36.518 224.696 39.416L224.696 39.416L224.696 50Z M253.928 50.588L253.928 50.588Q250.820 50.588 248.447 49.265Q246.074 47.942 244.751 45.527Q243.428 43.112 243.428 39.836L243.428 39.836L243.428 39.332Q243.428 36.056 244.730 33.641Q246.032 31.226 248.384 29.903Q250.736 28.580 253.844 28.580L253.844 28.580Q256.910 28.580 259.178 29.945Q261.446 31.310 262.706 33.725Q263.966 36.140 263.966 39.332L263.966 39.332L263.966 41.138L248.804 41.138Q248.888 43.280 250.400 44.624Q251.912 45.968 254.096 45.968L254.096 45.968Q256.322 45.968 257.372 45.002Q258.422 44.036 258.968 42.860L258.968 42.860L263.294 45.128Q262.706 46.220 261.593 47.501Q260.480 48.782 258.632 49.685Q256.784 50.588 253.928 50.588ZM248.846 37.190L248.846 37.190L258.590 37.190Q258.422 35.384 257.141 34.292Q255.860 33.200 253.802 33.200L253.802 33.200Q251.660 33.200 250.400 34.292Q249.140 35.384 248.846 37.190Z M277.322 50.588L277.322 50.588Q274.214 50.588 271.841 49.265Q269.468 47.942 268.145 45.527Q266.822 43.112 266.822 39.836L266.822 39.836L266.822 39.332Q266.822 36.056 268.124 33.641Q269.426 31.226 271.778 29.903Q274.130 28.580 277.238 28.580L277.238 28.580Q280.304 28.580 282.572 29.945Q284.840 31.310 286.100 33.725Q287.360 36.140 287.360 39.332L287.360 39.332L287.360 41.138L272.198 41.138Q272.282 43.280 273.794 44.624Q275.306 45.968 277.490 45.968L277.490 45.968Q279.716 45.968 280.766 45.002Q281.816 44.036 282.362 42.860L282.362 42.860L286.688 45.128Q286.100 46.220 284.987 47.501Q283.874 48.782 282.026 49.685Q280.178 50.588 277.322 50.588ZM272.240 37.190L272.240 37.190L281.984 37.190Q281.816 35.384 280.535 34.292Q279.254 33.200 277.196 33.200L277.196 33.200Q275.054 33.200 273.794 34.292Q272.534 35.384 272.240 37.190Z M305.084 50L299.204 50Q297.146 50 295.865 48.719Q294.584 47.438 294.584 45.296L294.584 45.296L294.584 33.536L289.376 33.536L289.376 29.168L294.584 29.168L294.584 22.700L299.876 22.700L299.876 29.168L305.588 29.168L305.588 33.536L299.876 33.536L299.876 44.372Q299.876 45.632 301.052 45.632L301.052 45.632L305.084 45.632L305.084 50Z" fill="#E85D2A"></path>
</svg>